<svg width="282" height="48" viewBox="0 0 282 48" fill="none" xmlns="http://www.w3.org/2000/svg">
<path fill-rule="evenodd" clip-rule="evenodd" d="M7.0294 7.02943C0.747911 13.3109 -1.32374 22.2082 0.814562 30.215L6.85802 24.1714C6.81382 19.7272 8.48716 15.2691 11.8782 11.8782C17.7427 6.01371 26.7988 5.28643 33.455 9.69627L25.5152 17.636H35.2126L43.223 9.62565C42.5446 8.72059 41.7936 7.85255 40.9706 7.02943C31.598 -2.34314 16.402 -2.34314 7.0294 7.02943ZM14.545 38.3038C21.2012 42.7136 30.2574 41.9862 36.1218 36.1218C39.5128 32.7308 41.1862 28.2728 41.142 23.8286L47.1854 17.7851C49.3238 25.7918 47.252 34.689 40.9706 40.9706C31.598 50.3432 16.4021 50.3432 7.0294 40.9706C6.20628 40.1474 5.45556 39.2794 4.77696 38.3744L12.7873 30.364H22.4848L14.545 38.3038Z" fill="white"/>
<path d="M247.427 28.41V27.9531H252.733V28.41C252.733 29.3938 253.471 30.0615 254.631 30.4832C255.755 30.9048 257.196 31.0454 258.18 31.0454C259.339 31.0454 260.745 30.94 261.869 30.5183C262.959 30.0966 263.661 29.429 263.661 28.3045C263.661 27.3558 262.923 26.8287 261.694 26.5476C261.061 26.3719 260.393 26.3016 259.761 26.2665C259.093 26.2313 258.496 26.2313 258.004 26.2313C252.979 26.2313 247.849 25.3177 247.849 19.4143C247.849 13.6515 252.979 12 258.18 12C263.099 12 268.546 14.1786 268.546 19.5549V20.0469H263.24V19.5549C263.24 18.6061 262.572 17.9385 261.553 17.5168C260.499 17.0952 259.199 16.9195 258.18 16.9195C257.125 16.9195 255.825 17.0249 254.806 17.4114C253.822 17.7628 253.19 18.3953 253.19 19.4143C253.19 20.2928 253.858 20.7848 255.017 21.0307C255.579 21.1713 256.212 21.2416 256.809 21.2767C257.407 21.3119 258.004 21.3119 258.426 21.3119C263.591 21.3119 269.003 22.2255 269.003 28.3045C269.003 34.2782 263.591 36 258.18 36C253.33 36 247.427 33.9268 247.427 28.41Z" fill="white"/>
<path d="M219.803 23.9824C219.803 17.8682 224.02 12 231.434 12C236.6 12 240.605 15.022 242.257 19.3089L242.503 19.9063L236.564 20.0117L236.389 19.7657C235.299 18.1493 233.507 17.1303 231.434 17.1303C227.463 17.1303 225.355 20.5388 225.355 23.9824C225.355 27.4612 227.499 30.7994 231.434 30.7994C234.21 30.7994 236.248 29.0425 237.127 26.6881H230.907V21.7335H242.854L242.925 22.1552C243.03 22.7526 243.065 23.3851 243.065 23.9824C243.065 30.1318 238.884 36 231.434 36C224.02 36 219.803 30.0966 219.803 23.9824Z" fill="white"/>
<path d="M193.822 24.4392V12.4568H199.163V24.4392C199.163 27.6017 200.991 30.7994 204.61 30.7994C208.194 30.7994 210.057 27.5666 210.057 24.4392V12.4568H215.398V24.4392C215.398 30.0615 211.673 36 204.61 36C197.547 36 193.822 30.0966 193.822 24.4392Z" fill="white"/>
<path d="M166.787 35.5432V12.4568H181.44C186.043 12.4568 188.362 15.8302 188.362 19.5549C188.362 21.0307 187.8 22.5066 186.71 23.631C188.397 24.7906 189.205 26.5476 189.205 28.4099C189.205 32.1698 186.886 35.5432 182.248 35.5432H166.787ZM172.128 21.5227H181.44C182.459 21.5227 183.021 20.7848 183.021 19.7657V19.1332C183.021 18.0791 182.459 17.3763 181.44 17.3763H172.128V21.5227ZM172.128 30.6237H182.248C183.267 30.6237 183.899 29.8858 183.899 28.8668V28.1991C183.899 27.1449 183.267 26.4422 182.248 26.4422H172.128V30.6237Z" fill="white"/>
<path d="M136.783 35.5432L145.954 12.4568H153.088L162.224 35.5432H156.496L154.282 29.8858H144.619L142.44 35.5432H136.783ZM146.481 24.9663H152.455L149.398 17.6222L146.481 24.9663Z" fill="white"/>
<path d="M111.273 23.9824C111.273 17.8682 115.49 12 122.904 12C128.069 12 132.075 15.022 133.727 19.3089L133.973 19.9063L128.034 20.0117L127.858 19.7657C126.769 18.1493 124.977 17.1303 122.904 17.1303C118.933 17.1303 116.825 20.5388 116.825 23.9824C116.825 27.4612 118.968 30.7994 122.904 30.7994C125.68 30.7994 127.718 29.0425 128.596 26.6881H122.377V21.7335H134.324L134.394 22.1552C134.5 22.7526 134.535 23.3851 134.535 23.9824C134.535 30.1318 130.353 36 122.904 36C115.49 36 111.273 30.0966 111.273 23.9824Z" fill="white"/>
<path d="M100.523 12.4568H105.864V35.5432H100.523V12.4568Z" fill="white"/>
<path d="M71.81 23.9824C71.81 17.8682 76.0267 12 83.441 12C88.6065 12 92.6123 15.022 94.2639 19.3089L94.5098 19.9063L88.5713 20.0117L88.3956 19.7657C87.3063 18.1493 85.5142 17.1303 83.441 17.1303C79.4703 17.1303 77.362 20.5388 77.362 23.9824C77.362 27.4612 79.5055 30.7994 83.441 30.7994C86.217 30.7994 88.2551 29.0425 89.1336 26.6881H82.914V21.7335H94.8612L94.9315 22.1552C95.0369 22.7526 95.0721 23.3851 95.0721 23.9824C95.0721 30.1318 90.8905 36 83.441 36C76.0267 36 71.81 30.0966 71.81 23.9824Z" fill="white"/>
</svg>
