<svg width="282" height="48" viewBox="0 0 282 48" fill="none" xmlns="http://www.w3.org/2000/svg">
<g clip-path="url(#clip0_5_2)">
<path fill-rule="evenodd" clip-rule="evenodd" d="M7.0294 7.02943C0.747911 13.3109 -1.32374 22.2082 0.814562 30.215L6.85802 24.1714C6.81382 19.7272 8.48716 15.2691 11.8782 11.8782C17.7427 6.01371 26.7988 5.28643 33.455 9.69627L25.5152 17.636H35.2126L43.223 9.62565C42.5446 8.72059 41.7936 7.85255 40.9706 7.02943C31.598 -2.34314 16.402 -2.34314 7.0294 7.02943ZM14.545 38.3038C21.2012 42.7136 30.2574 41.9862 36.1218 36.1218C39.5128 32.7308 41.1862 28.2728 41.142 23.8286L47.1854 17.7851C49.3238 25.7918 47.252 34.689 40.9706 40.9706C31.598 50.3432 16.4021 50.3432 7.0294 40.9706C6.20628 40.1474 5.45556 39.2794 4.77696 38.3744L12.7873 30.364H22.4848L14.545 38.3038ZM163.639 12.3C156.404 12.3 152.29 18.0257 152.29 23.9914C152.29 29.957 156.404 35.717 163.639 35.717C170.873 35.717 174.987 29.957 174.987 23.9914C174.987 18.0257 170.873 12.3 163.639 12.3ZM163.639 17.3057C167.513 17.3057 169.604 20.6314 169.604 23.9914C169.604 27.3856 167.479 30.6428 163.639 30.6428C159.799 30.6428 157.707 27.3856 157.707 23.9914C157.707 20.6314 159.764 17.3057 163.639 17.3057ZM233.986 23.9914C233.986 18.0257 238.1 12.3 245.334 12.3C250.374 12.3 254.282 15.2486 255.894 19.4314L256.134 20.0142L250.34 20.1172L250.168 19.8771C249.106 18.3 247.358 17.3057 245.334 17.3057C241.46 17.3057 239.402 20.6314 239.402 23.9914C239.402 27.3856 241.494 30.6428 245.334 30.6428C248.042 30.6428 250.032 28.9286 250.888 26.6314H244.82V21.7972H256.478L256.546 22.2086C256.648 22.7914 256.682 23.4086 256.682 23.9914C256.682 29.9914 252.602 35.717 245.334 35.717C238.1 35.717 233.986 29.957 233.986 23.9914ZM260.938 28.3114V27.8656H266.116V28.3114C266.116 29.2714 266.836 29.9228 267.968 30.3342C269.064 30.7456 270.47 30.8828 271.43 30.8828C272.562 30.8828 273.934 30.78 275.03 30.3686C276.094 29.957 276.778 29.3056 276.778 28.2086C276.778 27.2828 276.058 26.7686 274.858 26.4942C274.242 26.3228 273.59 26.2542 272.974 26.22C272.322 26.1856 271.738 26.1856 271.258 26.1856C266.356 26.1856 261.35 25.2942 261.35 19.5343C261.35 13.9114 266.356 12.3 271.43 12.3C276.23 12.3 281.544 14.4257 281.544 19.6714V20.1514H276.368V19.6714C276.368 18.7457 275.716 18.0943 274.722 17.6829C273.694 17.2714 272.424 17.1 271.43 17.1C270.402 17.1 269.134 17.2029 268.138 17.58C267.178 17.9228 266.562 18.54 266.562 19.5343C266.562 20.3914 267.214 20.8714 268.344 21.1114C268.894 21.2486 269.51 21.3172 270.094 21.3514C270.676 21.3858 271.258 21.3858 271.67 21.3858C276.71 21.3858 281.99 22.277 281.99 28.2086C281.99 34.037 276.71 35.717 271.43 35.717C266.698 35.717 260.938 33.6942 260.938 28.3114ZM207.66 12.7457V24.437C207.66 29.957 211.294 35.717 218.186 35.717C225.078 35.717 228.712 29.9228 228.712 24.437V12.7457H223.5V24.437C223.5 27.4884 221.684 30.6428 218.186 30.6428C214.654 30.6428 212.872 27.5228 212.872 24.437V12.7457H207.66ZM180.306 35.2714V12.7457H194.603C199.095 12.7457 201.356 16.0371 201.356 19.6714C201.356 21.1114 200.808 22.5514 199.746 23.6484C201.392 24.78 202.18 26.4942 202.18 28.3114C202.18 31.98 199.917 35.2714 195.392 35.2714H180.306ZM185.518 21.5914H194.603C195.598 21.5914 196.146 20.8714 196.146 19.8771V19.26C196.146 18.2314 195.598 17.5457 194.603 17.5457H185.518V21.5914ZM185.518 30.4714H195.392C196.386 30.4714 197.003 29.7514 197.003 28.757V28.1056C197.003 27.077 196.386 26.3914 195.392 26.3914H185.518V30.4714ZM125.73 35.2714V12.7457H141.262C145.787 12.7457 148.016 16.0371 148.016 19.6714C148.016 22.7228 146.302 25.5342 142.907 26.22C142.934 26.265 142.964 26.3076 142.994 26.3492L143.037 26.4082C143.106 26.503 143.174 26.595 143.216 26.7L148.359 35.2714H142.496L137.216 26.3914H130.942V35.2714H125.73ZM130.942 21.5914H141.262C142.256 21.5914 142.805 20.8714 142.805 19.8771V19.26C142.805 18.2314 142.256 17.5457 141.262 17.5457H130.942V21.5914ZM120.006 12.7457H98.5428V35.2714H120.006V30.4714H103.754V26.3914H115.823V21.5914H103.754V17.5457H120.006V12.7457ZM71.34 31.1914L84.6428 17.5457H71.7514V12.7457H92.3914V16.8257L79.0542 30.4714H92.8028V35.2714H71.34V31.1914Z" fill="white"/>
</g>
<defs>
<clipPath id="clip0_5_2">
<rect width="282" height="48" fill="white"/>
</clipPath>
</defs>
</svg>
