<svg width="20" height="20" viewBox="0 0 20 20" fill="none" xmlns="http://www.w3.org/2000/svg">
<path d="M4.24033 12.9033C4.89082 12.9234 5.51474 13.1536 6.02096 13.5548L6.23027 13.7366L6.24207 13.7484C7.37208 14.8641 7.35541 16.6528 6.38652 17.7991L6.38554 17.7981C5.96662 18.2956 5.39378 18.6589 4.84861 18.9252C4.29109 19.1975 3.69099 19.4043 3.15348 19.5581C2.61259 19.7128 2.11372 19.8204 1.75118 19.8892C1.56927 19.9238 1.41932 19.9482 1.31389 19.9649C1.26131 19.9732 1.21956 19.9803 1.19007 19.9845C1.17534 19.9867 1.16314 19.9883 1.15469 19.9895C1.15069 19.99 1.14735 19.9901 1.14486 19.9904C1.14368 19.9906 1.14275 19.9913 1.14192 19.9914H1.13995C0.829194 20.033 0.516547 19.9271 0.294839 19.7055C0.0731273 19.4838 -0.0326716 19.1711 0.00887693 18.8604V18.8584C0.00898897 18.8576 0.00969759 18.8566 0.00985962 18.8554C0.0102137 18.8528 0.0102517 18.8489 0.0108423 18.8446C0.012014 18.8362 0.0136514 18.8247 0.0157557 18.8102C0.0200554 18.7807 0.0270443 18.7382 0.0354095 18.6854C0.0521212 18.58 0.0765948 18.4307 0.111076 18.2491C0.179912 17.8866 0.287527 17.3877 0.442242 16.8468C0.596037 16.3092 0.802704 15.7084 1.07509 15.1507C1.34185 14.6047 1.70536 14.0299 2.2042 13.6108V13.6118C2.77269 13.1332 3.49753 12.8803 4.24033 12.9033ZM4.17842 14.9149C3.93093 14.9072 3.68873 14.9921 3.49938 15.1517L3.4984 15.1527C3.30561 15.3147 3.09201 15.6068 2.88324 16.0341C2.68006 16.4501 2.5116 16.9301 2.37715 17.4001C2.34763 17.5033 2.32036 17.6054 2.29461 17.7047C2.39412 17.6789 2.49681 17.6527 2.60022 17.6232C3.07018 17.4887 3.55022 17.3202 3.96616 17.1171C4.39349 16.9083 4.68563 16.6947 4.84763 16.5019L4.8496 16.4999C5.18953 16.0978 5.15563 15.508 4.83093 15.1841C4.65309 15.0187 4.42146 14.9225 4.17842 14.9149Z" fill="white"/>
<path d="M18.9996 0.000247772C19.5528 0.00367914 19.9999 0.453312 20 1.00652C20 3.71288 19.2108 8.5081 14.0193 11.989C14.0119 11.994 14.0043 11.999 13.9967 12.0038C12.7748 12.7765 11.4783 13.4247 10.1269 13.9387C9.75652 14.0796 9.33798 13.9899 9.05775 13.7097L6.2905 10.9425C6.00916 10.6611 5.92048 10.2406 6.0635 9.86938C6.5787 8.53277 7.227 7.25114 7.9994 6.04476C9.1648 4.18482 10.7861 2.65296 12.7094 1.59515C14.6358 0.535725 16.8012 -0.0133845 18.9996 0.000247772ZM17.9393 2.05603C16.4484 2.19098 14.9976 2.63403 13.6793 3.35907C12.0539 4.25308 10.6842 5.54803 9.70043 7.1208L9.69453 7.12965C9.11187 8.03969 8.60719 8.99731 8.18512 9.99123L10.01 11.8161C11.0158 11.3952 11.9853 10.8921 12.9079 10.3096C16.7244 7.74595 17.7329 4.40835 17.9393 2.05603Z" fill="white"/>
<path d="M5.4923 5.11874C6.0933 5.06288 6.70271 5.10193 7.2297 5.16984C7.76056 5.23826 8.23574 5.34023 8.57696 5.42436C8.74847 5.46665 8.88893 5.5051 8.98773 5.53344C9.03702 5.54758 9.07675 5.55935 9.10467 5.56783C9.11815 5.57193 9.12904 5.57515 9.13709 5.57766C9.1412 5.57894 9.1453 5.57978 9.1479 5.58061C9.14904 5.58097 9.15001 5.58132 9.15085 5.58159L9.15183 5.58257H9.15282L9.24912 5.61893C9.71698 5.82231 9.96383 6.35091 9.80532 6.84729C9.64671 7.34368 9.13897 7.63185 8.63985 7.52633L8.5406 7.4998H8.54159C8.54115 7.49966 8.54017 7.49929 8.53864 7.49881C8.53497 7.49767 8.52812 7.4957 8.51898 7.49292C8.50055 7.48731 8.47123 7.47848 8.43251 7.46737C8.35496 7.44512 8.23953 7.41347 8.09544 7.37794C7.80541 7.30643 7.40743 7.22177 6.97223 7.16568C6.53315 7.10911 6.08271 7.08493 5.67902 7.12244C5.26739 7.1607 4.97608 7.25573 4.79361 7.37696C4.41665 7.62925 4.04511 8.2706 3.75688 9.06522C3.73747 9.11873 3.71969 9.17206 3.70185 9.22441H7.00171C7.55739 9.22441 8.00787 9.67504 8.00799 10.2307C8.00799 10.7864 7.55746 11.237 7.00171 11.237H2.38996C2.09163 11.237 1.80876 11.1043 1.61757 10.8753C1.42652 10.6463 1.34615 10.3443 1.39941 10.0509L2.38996 10.2307C1.476 10.0648 1.40576 10.052 1.40039 10.0509V10.0459C1.40082 10.0436 1.40169 10.0407 1.40236 10.0371C1.40376 10.0296 1.40581 10.0192 1.40825 10.0066C1.4132 9.98132 1.42055 9.9457 1.42987 9.90148C1.44851 9.81312 1.476 9.68869 1.5134 9.53789C1.58783 9.23782 1.70313 8.82513 1.8652 8.37832C2.16499 7.55192 2.71493 6.34689 3.67531 5.70443H3.6763C4.24094 5.328 4.90004 5.17383 5.4923 5.11874Z" fill="white"/>
<path d="M13.1526 10.1952C13.6819 10.0261 14.248 10.3176 14.4173 10.8467L13.7422 11.0629L14.4173 10.8477L14.4183 10.8497C14.4186 10.8505 14.4189 10.8516 14.4193 10.8526C14.4201 10.8552 14.421 10.8585 14.4222 10.8625C14.4248 10.8707 14.4288 10.8819 14.433 10.8959C14.4416 10.9239 14.4533 10.9634 14.4674 11.0128C14.4958 11.1115 14.5333 11.2514 14.5755 11.4226C14.6597 11.7638 14.7616 12.2399 14.8301 12.7709C14.8979 13.2977 14.937 13.9065 14.8812 14.5073C14.8261 15.0995 14.6728 15.7586 14.2965 16.3233L14.2955 16.3252C13.6529 17.2857 12.448 17.8356 11.6216 18.1353C11.1748 18.2974 10.7621 18.4127 10.462 18.4871C10.3113 18.5245 10.1867 18.552 10.0984 18.5707C10.0545 18.5799 10.0195 18.5874 9.99425 18.5923C9.98182 18.5947 9.97126 18.5958 9.96378 18.5972C9.96002 18.5979 9.95638 18.5987 9.95396 18.5992C9.95281 18.5994 9.95184 18.6 9.95101 18.6002H9.94904C9.65562 18.6534 9.35355 18.574 9.12457 18.383C8.89564 18.1919 8.76304 17.9088 8.76294 17.6106V12.9979C8.76312 12.4423 9.21357 11.9916 9.76921 11.9916C10.3249 11.9916 10.7753 12.4423 10.7755 12.9979V16.2987C10.8281 16.2808 10.8819 16.2632 10.9357 16.2437C11.7303 15.9554 12.3707 15.5829 12.6229 15.206C12.744 15.0235 12.8392 14.7328 12.8775 14.3215C12.915 13.9177 12.8908 13.4666 12.8342 13.0273C12.7781 12.5924 12.6934 12.195 12.622 11.9051C12.5865 11.7612 12.5548 11.6456 12.5325 11.568C12.5214 11.5294 12.5126 11.5 12.507 11.4816C12.5042 11.4724 12.5022 11.4656 12.5011 11.4619L12.5001 11.4599L12.4736 11.3597C12.3685 10.8608 12.6565 10.3538 13.1526 10.1952Z" fill="white"/>
</svg>
